<svg fill="currentColor" xmlns="http://www.w3.org/2000/svg">

  <symbol id="floppy-40" width="40" height="40" viewBox="0 0 40 40" fill="currentColor">
    <rect x="0.5" y="0.5" width="3" height="3"  />
    <rect x="0.5" y="3.5" width="3" height="3"  />
    <rect x="0.5" y="6.5" width="3" height="3"  />
    <rect x="0.5" y="9.5" width="3" height="3"  />
    <rect x="0.5" y="12.5" width="3" height="3"  />
    <rect x="0.5" y="15.5" width="3" height="3"  />
    <rect x="0.5" y="18.5" width="3" height="3"  />
    <rect x="0.5" y="21.5" width="3" height="3"  />
    <rect x="0.5" y="24.5" width="3" height="3"  />
    <rect x="0.5" y="27.5" width="3" height="3"  />
    <rect x="0.5" y="30.5" width="3" height="3"  />
    <rect x="0.5" y="33.5" width="3" height="3"  />
    <rect x="0.5" y="36.5" width="3" height="3"  />
    <rect x="33.5" y="0.5" width="3" height="3" transform="rotate(90 33.5 0.5)"  />
    <rect x="30.5" y="0.5" width="3" height="3" transform="rotate(90 30.5 0.5)"  />
    <rect x="27.5" y="0.5" width="3" height="3" transform="rotate(90 27.5 0.5)"  />
    <rect x="24.5" y="0.5" width="3" height="3" transform="rotate(90 24.5 0.5)"  />
    <rect x="21.5" y="0.5" width="3" height="3" transform="rotate(90 21.5 0.5)"  />
    <rect x="18.5" y="0.5" width="3" height="3" transform="rotate(90 18.5 0.5)"  />
    <rect x="15.5" y="0.5" width="3" height="3" transform="rotate(90 15.5 0.5)"  />
    <rect x="12.5" y="0.5" width="3" height="3" transform="rotate(90 12.5 0.5)"  />
    <rect x="9.5" y="0.5" width="3" height="3" transform="rotate(90 9.5 0.5)"  />
    <rect x="6.5" y="0.5" width="3" height="3" transform="rotate(90 6.5 0.5)"  />
    <rect x="36.5" y="3.5" width="3" height="3" transform="rotate(90 36.5 3.5)"  />
    <rect x="9.5" y="6.5" width="3" height="3" transform="rotate(90 9.5 6.5)"  />
    <rect x="9.5" y="3.5" width="3" height="3" transform="rotate(90 9.5 3.5)"  />
    <rect x="9.5" y="9.5" width="3" height="3" transform="rotate(90 9.5 9.5)"  />
    <rect x="30.5" y="6.5" width="3" height="3" transform="rotate(90 30.5 6.5)"  />
    <rect x="30.5" y="3.5" width="3" height="3" transform="rotate(90 30.5 3.5)"  />
    <rect x="30.5" y="9.5" width="3" height="3" transform="rotate(90 30.5 9.5)"  />
    <rect x="24.5" y="6.5" width="3" height="3" transform="rotate(90 24.5 6.5)"  />
    <rect x="24.5" y="3.5" width="3" height="3" transform="rotate(90 24.5 3.5)"  />
    <rect x="24.5" y="9.5" width="3" height="3" transform="rotate(90 24.5 9.5)"  />
    <rect x="30.5" y="12.5" width="3" height="3" transform="rotate(90 30.5 12.5)"  />
    <rect x="27.5" y="12.5" width="3" height="3" transform="rotate(90 27.5 12.5)"  />
    <rect x="24.5" y="12.5" width="3" height="3" transform="rotate(90 24.5 12.5)"  />
    <rect x="21.5" y="12.5" width="3" height="3" transform="rotate(90 21.5 12.5)"  />
    <rect x="18.5" y="12.5" width="3" height="3" transform="rotate(90 18.5 12.5)"  />
    <rect x="15.5" y="12.5" width="3" height="3" transform="rotate(90 15.5 12.5)"  />
    <rect x="12.5" y="12.5" width="3" height="3" transform="rotate(90 12.5 12.5)"  />
    <rect x="9.5" y="12.5" width="3" height="3" transform="rotate(90 9.5 12.5)"  />
    <rect x="33.5" y="21.5" width="3" height="3" transform="rotate(90 33.5 21.5)"  />
    <rect x="30.5" y="21.5" width="3" height="3" transform="rotate(90 30.5 21.5)"  />
    <rect x="27.5" y="21.5" width="3" height="3" transform="rotate(90 27.5 21.5)"  />
    <rect x="24.5" y="21.5" width="3" height="3" transform="rotate(90 24.5 21.5)"  />
    <rect x="21.5" y="21.5" width="3" height="3" transform="rotate(90 21.5 21.5)"  />
    <rect x="18.5" y="21.5" width="3" height="3" transform="rotate(90 18.5 21.5)"  />
    <rect x="15.5" y="21.5" width="3" height="3" transform="rotate(90 15.5 21.5)"  />
    <rect x="12.5" y="21.5" width="3" height="3" transform="rotate(90 12.5 21.5)"  />
    <rect x="9.5" y="21.5" width="3" height="3" transform="rotate(90 9.5 21.5)"  />
    <rect x="33.5" y="24.5" width="3" height="3" transform="rotate(90 33.5 24.5)"  />
    <rect x="9.5" y="24.5" width="3" height="3" transform="rotate(90 9.5 24.5)"  />
    <rect x="33.5" y="27.5" width="3" height="3" transform="rotate(90 33.5 27.5)"  />
    <rect x="9.5" y="27.5" width="3" height="3" transform="rotate(90 9.5 27.5)"  />
    <rect x="33.5" y="30.5" width="3" height="3" transform="rotate(90 33.5 30.5)"  />
    <rect x="9.5" y="30.5" width="3" height="3" transform="rotate(90 9.5 30.5)"  />
    <rect x="9.5" y="33.5" width="3" height="3" transform="rotate(90 9.5 33.5)"  />
    <rect x="33.5" y="33.5" width="3" height="3" transform="rotate(90 33.5 33.5)"  />
    <rect x="36.5" y="36.5" width="3" height="3" transform="rotate(90 36.5 36.5)"  />
    <rect x="33.5" y="36.5" width="3" height="3" transform="rotate(90 33.5 36.5)"  />
    <rect x="30.5" y="36.5" width="3" height="3" transform="rotate(90 30.5 36.5)"  />
    <rect x="27.5" y="36.5" width="3" height="3" transform="rotate(90 27.5 36.5)"  />
    <rect x="24.5" y="36.5" width="3" height="3" transform="rotate(90 24.5 36.5)"  />
    <rect x="21.5" y="36.5" width="3" height="3" transform="rotate(90 21.5 36.5)"  />
    <rect x="18.5" y="36.5" width="3" height="3" transform="rotate(90 18.5 36.5)"  />
    <rect x="15.5" y="36.5" width="3" height="3" transform="rotate(90 15.5 36.5)"  />
    <rect x="12.5" y="36.5" width="3" height="3" transform="rotate(90 12.5 36.5)"  />
    <rect x="9.5" y="36.5" width="3" height="3" transform="rotate(90 9.5 36.5)"  />
    <rect x="6.5" y="36.5" width="3" height="3" transform="rotate(90 6.5 36.5)"  />
    <rect x="39.5" y="39.5" width="3" height="3" transform="rotate(-180 39.5 39.5)"  />
    <rect x="39.5" y="36.5" width="3" height="3" transform="rotate(-180 39.5 36.5)"  />
    <rect x="39.5" y="33.5" width="3" height="3" transform="rotate(-180 39.5 33.5)"  />
    <rect x="39.5" y="30.5" width="3" height="3" transform="rotate(-180 39.5 30.5)"  />
    <rect x="39.5" y="27.5" width="3" height="3" transform="rotate(-180 39.5 27.5)"  />
    <rect x="39.5" y="24.5" width="3" height="3" transform="rotate(-180 39.5 24.5)"  />
    <rect x="39.5" y="21.5" width="3" height="3" transform="rotate(-180 39.5 21.5)"  />
    <rect x="39.5" y="18.5" width="3" height="3" transform="rotate(-180 39.5 18.5)"  />
    <rect x="39.5" y="15.5" width="3" height="3" transform="rotate(-180 39.5 15.5)"  />
    <rect x="39.5" y="12.5" width="3" height="3" transform="rotate(-180 39.5 12.5)"  />
    <rect x="39.5" y="9.5" width="3" height="3" transform="rotate(-180 39.5 9.5)"  />
  </symbol>

  <symbol id="floppy-28" width="29" height="28" viewBox="0 0 29 28" fill="currentColor">
    <rect x="0.5" width="2.15385" height="2.15385"  />
    <rect x="0.5" y="2.15405" width="2.15385" height="2.15385"  />
    <rect x="0.5" y="4.30762" width="2.15385" height="2.15385"  />
    <rect x="0.5" y="6.46167" width="2.15385" height="2.15385"  />
    <rect x="0.5" y="8.61523" width="2.15385" height="2.15385"  />
    <rect x="0.5" y="10.7693" width="2.15385" height="2.15385"  />
    <rect x="0.5" y="12.9231" width="2.15385" height="2.15385"  />
    <rect x="0.5" y="15.0769" width="2.15385" height="2.15385"  />
    <rect x="0.5" y="17.2307" width="2.15385" height="2.15385"  />
    <rect x="0.5" y="19.3848" width="2.15385" height="2.15385"  />
    <rect x="0.5" y="21.5383" width="2.15385" height="2.15385"  />
    <rect x="0.5" y="23.6924" width="2.15385" height="2.15385"  />
    <rect x="0.5" y="25.8459" width="2.15385" height="2.15385"  />
    <rect x="24.1927" width="2.15385" height="2.15385" transform="rotate(90 24.1927 0)"  />
    <rect x="22.0391" width="2.15385" height="2.15385" transform="rotate(90 22.0391 0)"  />
    <rect x="19.884" width="2.15385" height="2.15385" transform="rotate(90 19.884 0)"  />
    <rect x="17.7305" width="2.15385" height="2.15385" transform="rotate(90 17.7305 0)"  />
    <rect x="15.5769" width="2.15385" height="2.15385" transform="rotate(90 15.5769 0)"  />
    <rect x="13.4231" width="2.15385" height="2.15385" transform="rotate(90 13.4231 0)"  />
    <rect x="11.2695" width="2.15385" height="2.15385" transform="rotate(90 11.2695 0)"  />
    <rect x="9.11597" width="2.15385" height="2.15385" transform="rotate(90 9.11597 0)"  />
    <rect x="6.96094" width="2.15385" height="2.15385" transform="rotate(90 6.96094 0)"  />
    <rect x="4.80737" width="2.15385" height="2.15385" transform="rotate(90 4.80737 0)"  />
    <rect x="26.3463" y="2.15405" width="2.15385" height="2.15385" transform="rotate(90 26.3463 2.15405)"  />
    <rect x="6.96094" y="4.30762" width="2.15385" height="2.15385" transform="rotate(90 6.96094 4.30762)"  />
    <rect x="6.96094" y="2.15405" width="2.15385" height="2.15385" transform="rotate(90 6.96094 2.15405)"  />
    <rect x="6.96094" y="6.46167" width="2.15385" height="2.15385" transform="rotate(90 6.96094 6.46167)"  />
    <rect x="22.0391" y="4.30762" width="2.15385" height="2.15385" transform="rotate(90 22.0391 4.30762)"  />
    <rect x="22.0391" y="2.15405" width="2.15385" height="2.15385" transform="rotate(90 22.0391 2.15405)"  />
    <rect x="22.0391" y="6.46167" width="2.15385" height="2.15385" transform="rotate(90 22.0391 6.46167)"  />
    <rect x="17.7305" y="4.30762" width="2.15385" height="2.15385" transform="rotate(90 17.7305 4.30762)"  />
    <rect x="17.7305" y="2.15405" width="2.15385" height="2.15385" transform="rotate(90 17.7305 2.15405)"  />
    <rect x="17.7305" y="6.46167" width="2.15385" height="2.15385" transform="rotate(90 17.7305 6.46167)"  />
    <rect x="22.0391" y="8.61523" width="2.15385" height="2.15385" transform="rotate(90 22.0391 8.61523)"  />
    <rect x="19.884" y="8.61523" width="2.15385" height="2.15385" transform="rotate(90 19.884 8.61523)"  />
    <rect x="17.7305" y="8.61523" width="2.15385" height="2.15385" transform="rotate(90 17.7305 8.61523)"  />
    <rect x="15.5769" y="8.61523" width="2.15385" height="2.15385" transform="rotate(90 15.5769 8.61523)"  />
    <rect x="13.4231" y="8.61523" width="2.15385" height="2.15385" transform="rotate(90 13.4231 8.61523)"  />
    <rect x="11.2695" y="8.61523" width="2.15385" height="2.15385" transform="rotate(90 11.2695 8.61523)"  />
    <rect x="9.11597" y="8.61523" width="2.15385" height="2.15385" transform="rotate(90 9.11597 8.61523)"  />
    <rect x="6.96094" y="8.61523" width="2.15385" height="2.15385" transform="rotate(90 6.96094 8.61523)"  />
    <rect x="24.1927" y="15.0769" width="2.15385" height="2.15385" transform="rotate(90 24.1927 15.0769)"  />
    <rect x="22.0391" y="15.0769" width="2.15385" height="2.15385" transform="rotate(90 22.0391 15.0769)"  />
    <rect x="19.884" y="15.0769" width="2.15385" height="2.15385" transform="rotate(90 19.884 15.0769)"  />
    <rect x="17.7305" y="15.0769" width="2.15385" height="2.15385" transform="rotate(90 17.7305 15.0769)"  />
    <rect x="15.5769" y="15.0769" width="2.15385" height="2.15385" transform="rotate(90 15.5769 15.0769)"  />
    <rect x="13.4231" y="15.0769" width="2.15385" height="2.15385" transform="rotate(90 13.4231 15.0769)"  />
    <rect x="11.2695" y="15.0769" width="2.15385" height="2.15385" transform="rotate(90 11.2695 15.0769)"  />
    <rect x="9.11597" y="15.0769" width="2.15385" height="2.15385" transform="rotate(90 9.11597 15.0769)"  />
    <rect x="6.96094" y="15.0769" width="2.15385" height="2.15385" transform="rotate(90 6.96094 15.0769)"  />
    <rect x="24.1927" y="17.2307" width="2.15385" height="2.15385" transform="rotate(90 24.1927 17.2307)"  />
    <rect x="6.96094" y="17.2307" width="2.15385" height="2.15385" transform="rotate(90 6.96094 17.2307)"  />
    <rect x="24.1927" y="19.3848" width="2.15385" height="2.15385" transform="rotate(90 24.1927 19.3848)"  />
    <rect x="6.96094" y="19.3848" width="2.15385" height="2.15385" transform="rotate(90 6.96094 19.3848)"  />
    <rect x="24.1927" y="21.5383" width="2.15385" height="2.15385" transform="rotate(90 24.1927 21.5383)"  />
    <rect x="6.96094" y="21.5383" width="2.15385" height="2.15385" transform="rotate(90 6.96094 21.5383)"  />
    <rect x="6.96094" y="23.6924" width="2.15385" height="2.15385" transform="rotate(90 6.96094 23.6924)"  />
    <rect x="24.1927" y="23.6924" width="2.15385" height="2.15385" transform="rotate(90 24.1927 23.6924)"  />
    <rect x="26.3463" y="25.8459" width="2.15385" height="2.15385" transform="rotate(90 26.3463 25.8459)"  />
    <rect x="24.1927" y="25.8459" width="2.15385" height="2.15385" transform="rotate(90 24.1927 25.8459)"  />
    <rect x="22.0391" y="25.8459" width="2.15385" height="2.15385" transform="rotate(90 22.0391 25.8459)"  />
    <rect x="19.884" y="25.8459" width="2.15385" height="2.15385" transform="rotate(90 19.884 25.8459)"  />
    <rect x="17.7305" y="25.8459" width="2.15385" height="2.15385" transform="rotate(90 17.7305 25.8459)"  />
    <rect x="15.5769" y="25.8459" width="2.15385" height="2.15385" transform="rotate(90 15.5769 25.8459)"  />
    <rect x="13.4231" y="25.8459" width="2.15385" height="2.15385" transform="rotate(90 13.4231 25.8459)"  />
    <rect x="11.2695" y="25.8459" width="2.15385" height="2.15385" transform="rotate(90 11.2695 25.8459)"  />
    <rect x="9.11597" y="25.8459" width="2.15385" height="2.15385" transform="rotate(90 9.11597 25.8459)"  />
    <rect x="6.96094" y="25.8459" width="2.15385" height="2.15385" transform="rotate(90 6.96094 25.8459)"  />
    <rect x="4.80737" y="25.8459" width="2.15385" height="2.15385" transform="rotate(90 4.80737 25.8459)"  />
    <rect x="28.5" y="28" width="2.15385" height="2.15385" transform="rotate(-180 28.5 28)"  />
    <rect x="28.5" y="25.8459" width="2.15385" height="2.15385" transform="rotate(-180 28.5 25.8459)"  />
    <rect x="28.5" y="23.6924" width="2.15385" height="2.15385" transform="rotate(-180 28.5 23.6924)"  />
    <rect x="28.5" y="21.5383" width="2.15385" height="2.15385" transform="rotate(-180 28.5 21.5383)"  />
    <rect x="28.5" y="19.3848" width="2.15385" height="2.15385" transform="rotate(-180 28.5 19.3848)"  />
    <rect x="28.5" y="17.2307" width="2.15385" height="2.15385" transform="rotate(-180 28.5 17.2307)"  />
    <rect x="28.5" y="15.0769" width="2.15385" height="2.15385" transform="rotate(-180 28.5 15.0769)"  />
    <rect x="28.5" y="12.9231" width="2.15385" height="2.15385" transform="rotate(-180 28.5 12.9231)"  />
    <rect x="28.5" y="10.7693" width="2.15385" height="2.15385" transform="rotate(-180 28.5 10.7693)"  />
    <rect x="28.5" y="8.61523" width="2.15385" height="2.15385" transform="rotate(-180 28.5 8.61523)"  />
    <rect x="28.5" y="6.46167" width="2.15385" height="2.15385" transform="rotate(-180 28.5 6.46167)"  />
  </symbol>

  <symbol id="floppy-21" width="21" height="21" viewBox="0 0 21 21" fill="currentColor">
    <rect width="1.61538" height="1.61538" />
    <rect y="1.61523" width="1.61538" height="1.61538" />
    <rect y="3.23096" width="1.61538" height="1.61538" />
    <rect y="4.84619" width="1.61538" height="1.61538"  />
    <rect y="6.46143" width="1.61538" height="1.61538"  />
    <rect y="8.07715" width="1.61538" height="1.61538"  />
    <rect y="9.69238" width="1.61538" height="1.61538"  />
    <rect y="11.3076" width="1.61538" height="1.61538"  />
    <rect y="12.9229" width="1.61538" height="1.61538"  />
    <rect y="14.5386" width="1.61538" height="1.61538"  />
    <rect y="16.1538" width="1.61538" height="1.61538"  />
    <rect y="17.769" width="1.61538" height="1.61538"  />
    <rect y="19.3848" width="1.61538" height="1.61538"  />
    <rect x="17.7693" width="1.61538" height="1.61538" transform="rotate(90 17.7693 0)" />
    <rect x="16.1538" width="1.61538" height="1.61538" transform="rotate(90 16.1538 0)" />
    <rect x="14.5385" width="1.61538" height="1.61538" transform="rotate(90 14.5385 0)" />
    <rect x="12.9231" width="1.61538" height="1.61538" transform="rotate(90 12.9231 0)"  />
    <rect x="11.3077" width="1.61538" height="1.61538" transform="rotate(90 11.3077 0)"  />
    <rect x="9.69226" width="1.61538" height="1.61538" transform="rotate(90 9.69226 0)"  />
    <rect x="8.0769" width="1.61538" height="1.61538" transform="rotate(90 8.0769 0)"  />
    <rect x="6.46155" width="1.61538" height="1.61538" transform="rotate(90 6.46155 0)"  />
    <rect x="4.84619" width="1.61538" height="1.61538" transform="rotate(90 4.84619 0)"  />
    <rect x="3.23071" width="1.61538" height="1.61538" transform="rotate(90 3.23071 0)"  />
    <rect x="19.3846" y="1.61523" width="1.61538" height="1.61538" transform="rotate(90 19.3846 1.61523)"  />
    <rect x="4.84619" y="3.23096" width="1.61538" height="1.61538" transform="rotate(90 4.84619 3.23096)"  />
    <rect x="4.84619" y="1.61523" width="1.61538" height="1.61538" transform="rotate(90 4.84619 1.61523)"  />
    <rect x="4.84619" y="4.84619" width="1.61538" height="1.61538" transform="rotate(90 4.84619 4.84619)"  />
    <rect x="16.1538" y="3.23096" width="1.61538" height="1.61538" transform="rotate(90 16.1538 3.23096)"  />
    <rect x="16.1538" y="1.61523" width="1.61538" height="1.61538" transform="rotate(90 16.1538 1.61523)"  />
    <rect x="16.1538" y="4.84619" width="1.61538" height="1.61538" transform="rotate(90 16.1538 4.84619)"  />
    <rect x="12.9231" y="3.23096" width="1.61538" height="1.61538" transform="rotate(90 12.9231 3.23096)"  />
    <rect x="12.9231" y="1.61523" width="1.61538" height="1.61538" transform="rotate(90 12.9231 1.61523)"  />
    <rect x="12.9231" y="4.84619" width="1.61538" height="1.61538" transform="rotate(90 12.9231 4.84619)"  />
    <rect x="16.1538" y="6.46143" width="1.61538" height="1.61538" transform="rotate(90 16.1538 6.46143)"  />
    <rect x="14.5385" y="6.46143" width="1.61538" height="1.61538" transform="rotate(90 14.5385 6.46143)"  />
    <rect x="12.9231" y="6.46143" width="1.61538" height="1.61538" transform="rotate(90 12.9231 6.46143)"  />
    <rect x="11.3077" y="6.46143" width="1.61538" height="1.61538" transform="rotate(90 11.3077 6.46143)"  />
    <rect x="9.69226" y="6.46143" width="1.61538" height="1.61538" transform="rotate(90 9.69226 6.46143)"  />
    <rect x="8.0769" y="6.46143" width="1.61538" height="1.61538" transform="rotate(90 8.0769 6.46143)"  />
    <rect x="6.46155" y="6.46143" width="1.61538" height="1.61538" transform="rotate(90 6.46155 6.46143)"  />
    <rect x="4.84619" y="6.46143" width="1.61538" height="1.61538" transform="rotate(90 4.84619 6.46143)"  />
    <rect x="17.7693" y="11.3076" width="1.61538" height="1.61538" transform="rotate(90 17.7693 11.3076)"  />
    <rect x="16.1538" y="11.3076" width="1.61538" height="1.61538" transform="rotate(90 16.1538 11.3076)"  />
    <rect x="14.5385" y="11.3076" width="1.61538" height="1.61538" transform="rotate(90 14.5385 11.3076)"  />
    <rect x="12.9231" y="11.3076" width="1.61538" height="1.61538" transform="rotate(90 12.9231 11.3076)"  />
    <rect x="11.3077" y="11.3076" width="1.61538" height="1.61538" transform="rotate(90 11.3077 11.3076)"  />
    <rect x="9.69226" y="11.3076" width="1.61538" height="1.61538" transform="rotate(90 9.69226 11.3076)"  />
    <rect x="8.0769" y="11.3076" width="1.61538" height="1.61538" transform="rotate(90 8.0769 11.3076)"  />
    <rect x="6.46155" y="11.3076" width="1.61538" height="1.61538" transform="rotate(90 6.46155 11.3076)"  />
    <rect x="4.84619" y="11.3076" width="1.61538" height="1.61538" transform="rotate(90 4.84619 11.3076)"  />
    <rect x="17.7693" y="12.9229" width="1.61538" height="1.61538" transform="rotate(90 17.7693 12.9229)"  />
    <rect x="4.84619" y="12.9229" width="1.61538" height="1.61538" transform="rotate(90 4.84619 12.9229)"  />
    <rect x="17.7693" y="14.5386" width="1.61538" height="1.61538" transform="rotate(90 17.7693 14.5386)"  />
    <rect x="4.84619" y="14.5386" width="1.61538" height="1.61538" transform="rotate(90 4.84619 14.5386)"  />
    <rect x="17.7693" y="16.1538" width="1.61538" height="1.61538" transform="rotate(90 17.7693 16.1538)"  />
    <rect x="4.84619" y="16.1538" width="1.61538" height="1.61538" transform="rotate(90 4.84619 16.1538)"  />
    <rect x="4.84619" y="17.769" width="1.61538" height="1.61538" transform="rotate(90 4.84619 17.769)"  />
    <rect x="17.7693" y="17.769" width="1.61538" height="1.61538" transform="rotate(90 17.7693 17.769)"  />
    <rect x="19.3846" y="19.3848" width="1.61538" height="1.61538" transform="rotate(90 19.3846 19.3848)"  />
    <rect x="17.7693" y="19.3848" width="1.61538" height="1.61538" transform="rotate(90 17.7693 19.3848)"  />
    <rect x="16.1538" y="19.3848" width="1.61538" height="1.61538" transform="rotate(90 16.1538 19.3848)"  />
    <rect x="14.5385" y="19.3848" width="1.61538" height="1.61538" transform="rotate(90 14.5385 19.3848)"  />
    <rect x="12.9231" y="19.3848" width="1.61538" height="1.61538" transform="rotate(90 12.9231 19.3848)"  />
    <rect x="11.3077" y="19.3848" width="1.61538" height="1.61538" transform="rotate(90 11.3077 19.3848)"  />
    <rect x="9.69226" y="19.3848" width="1.61538" height="1.61538" transform="rotate(90 9.69226 19.3848)"  />
    <rect x="8.0769" y="19.3848" width="1.61538" height="1.61538" transform="rotate(90 8.0769 19.3848)"  />
    <rect x="6.46155" y="19.3848" width="1.61538" height="1.61538" transform="rotate(90 6.46155 19.3848)"  />
    <rect x="4.84619" y="19.3848" width="1.61538" height="1.61538" transform="rotate(90 4.84619 19.3848)"  />
    <rect x="3.23071" y="19.3848" width="1.61538" height="1.61538" transform="rotate(90 3.23071 19.3848)"  />
    <rect x="21" y="21" width="1.61538" height="1.61538" transform="rotate(-180 21 21)"  />
    <rect x="21" y="19.3848" width="1.61538" height="1.61538" transform="rotate(-180 21 19.3848)"  />
    <rect x="21" y="17.769" width="1.61538" height="1.61538" transform="rotate(-180 21 17.769)"  />
    <rect x="21" y="16.1538" width="1.61538" height="1.61538" transform="rotate(-180 21 16.1538)"  />
    <rect x="21" y="14.5386" width="1.61538" height="1.61538" transform="rotate(-180 21 14.5386)"  />
    <rect x="21" y="12.9229" width="1.61538" height="1.61538" transform="rotate(-180 21 12.9229)"  />
    <rect x="21" y="11.3076" width="1.61538" height="1.61538" transform="rotate(-180 21 11.3076)"  />
    <rect x="21" y="9.69238" width="1.61538" height="1.61538" transform="rotate(-180 21 9.69238)"  />
    <rect x="21" y="8.07715" width="1.61538" height="1.61538" transform="rotate(-180 21 8.07715)"  />
    <rect x="21" y="6.46143" width="1.61538" height="1.61538" transform="rotate(-180 21 6.46143)"  />
    <rect x="21" y="4.84619" width="1.61538" height="1.61538" transform="rotate(-180 21 4.84619)"  />
  </symbol>
</svg>
